<svg height="512" viewBox="0 0 58 58" width="512" xmlns="http://www.w3.org/2000/svg"><g id="Page-1" fill="none" fill-rule="evenodd"><g id="037---Train" fill="rgb(0,0,0)" fill-rule="nonzero"><path id="Shape" d="m17.75 40c-1.79 4.79-5.61 14.97-6.51 17.35-.143745.389694-.5146413.6489226-.93.65h-8.51c-.36209254-.0028888-.69433503-.2012967-.8686008-.5187094-.17426577-.3174126-.16332588-.7042344.0286008-1.0112906 0-.01 8.37-13.42 11.39-18.23 1.5887596 1.102916 3.4664676 1.7149097 5.4 1.76z"/><path id="Shape" d="m56.2 58h-8.51c-.4153587-.0010774-.786255-.260306-.93-.65-.9-2.38-4.72-12.56-6.51-17.35 1.9335324-.0450903 3.8112404-.657084 5.4-1.76 3.02 4.81 11.39 18.22 11.39 18.23.1919267.3070562.2028666.693878.0286008 1.0112906-.1742658.3174127-.5065083.5158206-.8686008.5187094z"/><path id="Shape" d="m10 21.08v8.92c0 4.418278 3.581722 8 8 8h3c0-4.4 0-12.42-11-16.92zm6 10.92h-2c-.5522847 0-1-.4477153-1-1s.4477153-1 1-1h2c.5522847 0 1 .4477153 1 1s-.4477153 1-1 1z"/><path id="Shape" d="m16 15v1.21c1.4615703.7976773 2.8443979 1.7318393 4.13 2.79h7.87v-13h-3c-4.9673661.00770904-8.992291 4.0326339-9 9z"/><path id="Shape" d="m33 0h-8c-8.2831279.00275966-14.9972403 6.71687211-15 15v3.93c13 4.93 13 14.45 13 19.07h12c0-4.33 0-14.11 13-19.07v-3.93c-.0027597-8.28312789-6.7168721-14.99724034-15-15zm-2 34h-4c-.5522847 0-1-.4477153-1-1s.4477153-1 1-1h4c.5522847 0 1 .4477153 1 1s-.4477153 1-1 1zm0-4h-4c-.5522847 0-1-.4477153-1-1s.4477153-1 1-1h4c.5522847 0 1 .4477153 1 1s-.4477153 1-1 1zm0-4h-4c-.5522847 0-1-.4477153-1-1s.4477153-1 1-1h4c.5522847 0 1 .4477153 1 1s-.4477153 1-1 1zm13-9.79c-.005698.7282028-.4031015 1.3969106-1.04 1.75-3.744 2.074-3.744 3.04-5.08 3.04h-17.76c-1.332 0-1.33-.963-5.08-3.04-.6368985-.3530894-1.034302-1.0217972-1.04-1.75v-1.21c.0038613-6.07353213 4.9264679-10.99613871 11-11h8c6.0735321.00386129 10.9961387 4.92646787 11 11z"/><path id="Shape" d="m33 6h-3v13h7.88c1.2785705-1.0580362 2.6547511-1.9922318 4.11-2.79l.01-1.21c-.007709-4.9673661-4.0326339-8.99229096-9-9z"/><path id="Shape" d="m37 38h3c4.418278 0 8-3.581722 8-8v-8.92c-11 4.54-11 12.78-11 16.92zm7-8c.5522847 0 1 .4477153 1 1s-.4477153 1-1 1h-2c-.5522847 0-1-.4477153-1-1s.4477153-1 1-1z"/><path id="Shape" d="m40.37 46h-22.74l1.5-4h19.74z"/><path id="Shape" d="m44.11 56h-30.22l1.5-4h27.22z"/></g></g></svg>